<?xml version="1.0" standalone="no"?><!DOCTYPE svg PUBLIC "-//W3C//DTD SVG 1.1//EN" "http://www.w3.org/Graphics/SVG/1.1/DTD/svg11.dtd"><svg t="1681724528285" class="icon" viewBox="0 0 1024 1024" version="1.1" xmlns="http://www.w3.org/2000/svg" p-id="1320" xmlns:xlink="http://www.w3.org/1999/xlink" width="200" height="200"><path d="M716.693333 139.946667c-11.370667 23.893333-22.016 57.024-30.506666 89.706666a10.666667 10.666667 0 0 1-12.394667 7.786667c-42.858667-8.533333-73.237333-2.24-95.168 8.106667-11.349333 5.333333-20.608 11.797333-28.416 18.282666l3.904 0.149334 1.514667 0.064c9.429333 0.341333 18.56 0.704 27.562666 0.746666 18.986667 0.128 36.48-1.066667 52.586667-5.909333a10.666667 10.666667 0 0 1 13.738667 10.218667v49.962666c1.941333-1.685333 3.989333-3.434667 6.122666-5.226666 12.949333-10.986667 28.992-24.106667 39.424-30.677334 6.464-4.096 13.482667-2.965333 18.496-1.024 5.077333 1.92 10.048 5.333333 14.613334 9.109334 9.237333 7.594667 19.136 18.602667 28.010666 29.504 6.698667 8.192 13.013333 16.597333 18.325334 23.893333 1.642667-23.466667-4.906667-40.106667-14.208-52.842667-10.986667-15.082667-26.026667-25.216-39.893334-34.581333-2.453333-1.642667-4.864-3.285333-7.210666-4.906667a10.666667 10.666667 0 0 1-3.477334-13.546666c10.666667-21.312 20.437333-39.381333 28.650667-54.613334l6.016-11.221333c9.450667-17.664 15.786667-30.229333 18.837333-39.744 3.008-9.472 1.770667-12.864 0.362667-14.72-2.176-2.858667-7.893333-6.485333-22.250667-10.197333-0.384-0.106667-2.858667-0.576-8.213333 5.141333-5.098667 5.461333-10.666667 14.464-16.426667 26.517333z m54.954667 237.866666l-0.042667-0.042666-0.128-0.170667-0.128-0.213333C720 579.925333 634.24 705.194667 536.106667 792.234667a620.053333 620.053333 0 0 1-295.573334 145.493333 10.666667 10.666667 0 0 1-9.92-17.664c58.965333-65.002667 96.426667-156.842667 140.266667-269.312l6.229333-16 3.712-9.514667c40.149333-103.125333 83.498667-214.549333 157.290667-340.458666-4.778667-0.128-9.536-0.213333-14.293333-0.213334a10.666667 10.666667 0 0 1-7.488-18.261333l2.048-2.026667c10.56-10.453333 26.794667-26.581333 51.157333-38.037333 24.405333-11.498667 56.384-18.090667 98.538667-11.498667 8.192-30.165333 18.304-60.714667 29.354666-83.968 6.08-12.778667 12.8-24.106667 20.117334-31.936 7.061333-7.552 17.173333-14.336 29.141333-11.221333 14.634667 3.776 26.965333 8.789333 33.92 17.984 7.722667 10.24 6.677333 22.314667 2.922667 34.069333-3.733333 11.712-11.093333 26.048-20.330667 43.328l-6.122667 11.370667c-7.104 13.162667-15.189333 28.202667-24.064 45.610667 13.653333 9.152 31.530667 21.418667 44.522667 39.253333 16.298667 22.336 24.661333 52.693333 13.333333 95.488a10.666667 10.666667 0 0 1-19.221333 3.114667z m-32-43.584c-8.64-10.602667-17.472-20.288-25.024-26.517333a34.986667 34.986667 0 0 0-9.216-5.845333c-9.045333 5.888-23.338667 17.493333-35.989333 28.224a1258.026667 1258.026667 0 0 0-21.610667 18.794666l-1.365333 1.216-0.469334 0.426667a10.666667 10.666667 0 0 1-17.792-7.957333V282.666667c-14.848 2.88-30.08 3.562667-45.12 3.456a710.933333 710.933333 0 0 1-21.397333-0.512c-76.096 129.408-123.306667 250.666667-164.757333 357.162666l-6.144 15.744c-38.613333 98.986667-73.429333 185.6-124.16 251.690667a597.930667 597.930667 0 0 0 255.36-133.930667c95.829333-85.013333 184-216.853333 234.304-420.48a514.346667 514.346667 0 0 0-16.618667-21.568z m-66.709333 107.882667a591.146667 591.146667 0 0 1-29.312 77.781333c-13.802667 29.909333-30.4 58.197333-47.786667 74.517334l14.592 15.573333c20.544-19.285333 38.549333-50.773333 52.565333-81.130667a612.330667 612.330667 0 0 0 30.421334-80.810666l-20.48-5.930667z" p-id="1321"></path></svg>