<?xml version="1.0" standalone="no"?><!DOCTYPE svg PUBLIC "-//W3C//DTD SVG 1.1//EN" "http://www.w3.org/Graphics/SVG/1.1/DTD/svg11.dtd"><svg t="1681724524236" class="icon" viewBox="0 0 1024 1024" version="1.1" xmlns="http://www.w3.org/2000/svg" p-id="1173" xmlns:xlink="http://www.w3.org/1999/xlink" width="200" height="200"><path d="M579.093333 81.28a10.666667 10.666667 0 0 0-17.429333 2.837333l-186.645333 402.368a10.645333 10.645333 0 0 0-3.136 2.666667 31686.613333 31686.613333 0 0 0-126.976 159.210667c-43.84 55.381333-82.133333 104.405333-90.730667 117.290666-5.76 8.618667-10.794667 19.157333-13.653333 30.08-2.837333 10.794667-3.776 22.869333-0.085334 33.92 0.554667 1.621333 1.173333 3.2 1.92 4.757334l-27.754666 26.581333 14.762666 15.402667 27.008-25.877334c1.642667 1.130667 3.413333 2.133333 5.333334 3.093334l-22.72 49.706666 19.413333 8.853334 24.106667-52.736c1.493333 0.170667 3.029333 0.32 4.629333 0.426666l3.093333 48.874667 21.290667-1.344-3.050667-48c3.669333-0.341333 7.466667-0.853333 11.413334-1.472 21.44-3.413333 42.24-21.482667 61.162666-44.48l0.597334-0.725333a93.930667 93.930667 0 0 0-3.413334 10.368c-2.816 10.794667-3.733333 22.869333-0.064 33.92 0.597333 1.749333 1.28 3.456 2.090667 5.12l-1.856-1.706667-28.096 30.549333 15.701333 14.442667 26.410667-28.736c2.133333 1.578667 4.458667 3.008 7.018667 4.266667l-22.72 49.706666 19.413333 8.874667 24.106667-52.736c1.493333 0.170667 3.050667 0.32 4.629333 0.426667l3.114667 48.853333 21.290666-1.344-3.050666-47.957333c3.626667-0.362667 7.445333-0.853333 11.392-1.493334 11.242667-1.792 22.549333-8.213333 33.429333-16.810666 11.008-8.725333 22.464-20.416 34.026667-34.069334 23.125333-27.349333 47.530667-63.573333 70.72-102.357333 46.378667-77.546667 88.810667-166.826667 107.477333-219.349333a10.624 10.624 0 0 0 0.597333-2.986667l1.066667-1.6 219.52-175.125333a10.666667 10.666667 0 0 0 1.28-15.466667l-31.296-34.922667 115.776-138.325333a10.666667 10.666667 0 0 0-2.176-15.658667L853.76 91.605333a10.666667 10.666667 0 0 0-14.186667 1.962667l-41.813333 49.877333-17.173333-15.573333a10.666667 10.666667 0 0 0-16.256 2.325333l-210.026667 341.632a10.624 10.624 0 0 0-3.904 3.029334 18425.450667 18425.450667 0 0 1-110.912 135.68l-0.042667 0.021333-36.309333 44.16A16126.976 16126.976 0 0 0 320 756.757333c6.058667-10.176 12.032-20.778667 17.877333-31.637333 36.266667-67.328 68.330667-146.090667 86.826667-198.122667a10.624 10.624 0 0 0 0.597333-4.373333l307.093334-368a10.666667 10.666667 0 0 0-2.176-15.637333L675.968 101.973333a10.666667 10.666667 0 0 0-13.589333 1.301334l-53.013334 53.546666 10.922667-21.482666a10.666667 10.666667 0 0 0-1.749333-12.138667L579.093333 81.28z m201.493334 217.813333l21.717333 24.256-126.357333 100.8 104.64-125.034666z m105.685333-159.509333L706.709333 354.133333l116.181334-175.744a10.666667 10.666667 0 0 0-1.728-13.781333l-7.552-6.826667 36.138666-43.136 36.522667 24.917334zM560.234667 206.506667l-0.213334 0.213333 0.064 0.064-151.424 298.154667-13.632-10.901334 179.349334-386.645333 23.509333 24.96L560.213333 206.506667z m17.493333 12.629333l93.568-94.528L708.48 149.973333 464.213333 442.666667l113.514667-223.573334zM800.042667 174.293333l-210.432 318.293334-15.424-12.330667 201.6-327.936 24.256 21.973333zM560.384 496.512l20.181333 16.149333c-19.285333 51.690667-59.306667 135.253333-103.082666 208.426667-22.912 38.314667-46.634667 73.429333-68.693334 99.52-11.050667 13.056-21.482667 23.594667-30.997333 31.146667-9.664 7.637333-17.557333 11.498667-23.552 12.458666-20.608 3.285333-34.048 2.005333-42.453333-1.130666-7.914667-2.965333-11.626667-7.594667-13.376-12.842667-1.92-5.738667-1.770667-13.269333 0.469333-21.76 2.197333-8.362667 6.186667-16.768 10.773333-23.658667 3.797333-5.674667 17.493333-23.04 37.504-47.786666a16022.784 16022.784 0 0 1 72.490667-88.746667l36.266667-44.117333c39.573333-48.149333 78.549333-95.552 104.469333-127.658667z m-178.538667 14.293333l20.202667 16.170667c-18.56 51.221333-48.981333 124.906667-82.944 188.010667-17.813333 33.066667-36.373333 62.848-54.528 84.906666-18.624 22.613333-35.029333 34.88-48.064 36.970667-20.608 3.285333-34.048 2.005333-42.453333-1.130667-7.914667-2.965333-11.626667-7.594667-13.376-12.821333-1.92-5.76-1.770667-13.290667 0.469333-21.76 2.197333-8.384 6.186667-16.789333 10.773333-23.68 7.957333-11.946667 45.482667-59.989333 89.706667-115.882667 41.130667-51.946667 87.594667-110.122667 120.213333-150.784z" p-id="1174"></path></svg>