<?xml version="1.0" standalone="no"?><!DOCTYPE svg PUBLIC "-//W3C//DTD SVG 1.1//EN" "http://www.w3.org/Graphics/SVG/1.1/DTD/svg11.dtd"><svg t="1681724514789" class="icon" viewBox="0 0 1024 1024" version="1.1" xmlns="http://www.w3.org/2000/svg" p-id="1026" xmlns:xlink="http://www.w3.org/1999/xlink" width="200" height="200"><path d="M753.536 221.098667c-33.28-5.290667-66.773333-13.312-101.077333-21.525334l-11.648-2.773333c-38.250667-9.130667-77.461333-18.133333-117.568-23.104-80.576-10.026667-164.992-3.946667-254.570667 48.746667a10.816 10.816 0 0 0-1.664 1.194666c-60.544 36.266667-136.64 106.88-167.893333 199.338667-16.021333 47.445333-20.224 100.608-4.373334 157.44 15.573333 55.978667 50.432 114.858667 111.296 175.061333 4.053333 22.912 26.538667 48.106667 72.810667 66.88 52.992 21.525333 140.309333 36.309333 278.912 30.805334 280.725333-11.093333 365.845333-174.677333 371.946667-259.008l-2.304-0.170667c1.664-1.578667 3.114667-3.413333 4.288-5.461333 4.330667-7.402667 6.336-18.517333 7.125333-30.549334 0.832-12.544 0.426667-27.776-1.173333-44.672a531.84 531.84 0 0 0-25.088-115.712c-13.696-40.618667-33.066667-81.237333-59.029334-113.408-25.984-32.213333-59.072-56.576-99.989333-63.082666zM286.869333 802.602667c-44.373333-18.026667-57.749333-38.954667-59.84-51.285334a18158.613333 18158.613333 0 0 0 44.650667-130.773333c18.986667 13.781333 42.069333 22.741333 66.88 29.568 23.701333 6.506667 49.962667 11.264 76.714667 16.106667 7.616 1.365333 15.253333 2.773333 22.890666 4.181333 68.245333 12.8 137.706667 29.930667 190.08 80.234667-2.944 32.042667-13.866667 56.938667-29.866666 78.314666-13.269333 1.365333-27.093333 2.346667-41.472 2.901334-137.173333 5.44-221.034667-9.365333-270.037334-29.248z m341.973334-79.957334c-55.296-45.354667-123.968-61.44-186.730667-73.216-8-1.493333-15.893333-2.922667-23.637333-4.330666-26.581333-4.8-51.562667-9.322667-74.282667-15.573334-26.496-7.253333-48.618667-16.554667-65.28-30.336 9.386667-25.024 24-38.912 42.730667-53.76 3.029333-2.389333 6.186667-4.821333 9.429333-7.317333 9.045333-6.976 18.88-14.570667 29.077333-23.765333 7.317333 9.493333 18.090667 15.658667 30.08 19.904 16.597333 5.909333 37.546667 8.832 59.648 11.370666l15.232 1.685334h0.064c40.106667 4.373333 84.330667 9.216 124.352 25.856 19.477333 47.082667 31.04 86.336 36.224 119.616 1.642667 10.538667 2.666667 20.48 3.072 29.866666zM397.354667 514.133333c-11.093333-3.946667-17.984-8.789333-21.76-14.933333 5.333333-5.632 10.730667-11.84 16.085333-18.730667 21.482667-27.626667 59.861333-41.685333 97.877333-52.202666 6.741333-1.877333 13.568-3.648 20.224-5.397334l4.437334-1.152c26.090667 46.378667 47.082667 87.616 63.616 124.416-37.461333-12.16-76.714667-16.426667-110.421334-20.053333l-15.125333-1.685333c-22.336-2.56-40.96-5.290667-54.954667-10.261334zM626.346667 825.450667c12.522667-21.12 20.693333-45.12 23.189333-73.664a1863.488 1863.488 0 0 1 98.837333-109.461334c19.413333-19.733333 38.848-38.250667 56.554667-53.162666 14.869333-12.522667 28.010667-22.08 38.613333-27.776 13.312 11.114667 26.24 21.077333 37.674667 28.010666 8.704 5.269333 17.749333 9.536 26.154667 10.538667l0.298666 0.042667c-8.746667 68.181333-74.496 194.496-281.322666 225.472z m195.242666-282.922667l4.757334 4.16c-10.922667 6.72-22.869333 15.786667-35.157334 26.154667-18.410667 15.509333-38.357333 34.538667-58.026666 54.506666a1865.941333 1865.941333 0 0 0-83.221334 90.922667c-0.533333-9.173333-1.557333-18.752-3.136-28.8-5.290667-33.856-16.64-72.96-35.285333-118.869333a178.090667 178.090667 0 0 0 71.04-57.301334c8.362667-11.52 14.314667-22.933333 17.813333-33.002666 1.216-3.477333 2.218667-7.04 2.88-10.581334l1.642667 0.298667c7.552 1.408 15.04 1.941333 21.546667 0.768 0.853333-0.149333 4.266667 0.128 11.370666 3.904 6.570667 3.52 14.506667 9.024 23.552 16.085333 14.144 11.029333 29.973333 25.045333 46.293334 39.466667 4.608 4.096 9.258667 8.192 13.930666 12.288z m-139.008-78.506667a48.192 48.192 0 0 1-2.346666 9.258667 109.888 109.888 0 0 1-14.933334 27.52 156.672 156.672 0 0 1-62.058666 50.133333c-17.216-39.850667-39.616-84.544-67.84-134.997333 2.005333-0.576 3.925333-1.173333 5.76-1.749333 7.424-2.368 14.357333-4.992 20.181333-8.106667 2.389333-1.28 4.757333-2.730667 6.976-4.394667l0.426667 0.341334c15.509333 11.946667 34.432 24.106667 53.802666 34.773333 19.349333 10.645333 39.424 19.968 57.216 26.24l2.816 0.981333z m-131.221333-76.8l-0.085333 0.064a102.058667 102.058667 0 0 1-16.576 6.570667c-8.704 2.773333-18.517333 5.333333-29.376 8.149333-6.762667 1.770667-13.909333 3.626667-21.44 5.717334-37.717333 10.432-82.752 25.856-109.034667 59.669333-19.328 24.853333-38.442667 39.594667-56.533333 53.589333-3.349333 2.581333-6.656 5.141333-9.941334 7.722667-21.12 16.746667-40.064 34.56-51.264 68.138667a15819.946667 15819.946667 0 0 1-45.568 133.866666c-26.858667-27.776-47.744-54.976-63.594666-81.429333 0.853333-44.352 12.842667-104.96 42.069333-162.026667 29.952-58.496 77.738667-112.810667 149.76-142.634666 19.712 1.045333 35.072 6.784 47.978667 12.736 2.944 1.365333 6.08 2.901333 9.216 4.416 4.586667 2.261333 9.130667 4.48 12.928 6.08 6.72 2.816 14.634667 5.376 22.890666 3.989333 5.077333-0.853333 12.501333-3.2 20.224-5.632l4.544-1.429333c9.877333-3.072 20.885333-6.314667 31.722667-8.32 10.986667-2.048 20.928-2.624 28.885333-1.002667 7.573333 1.557333 12.842667 4.949333 16.128 10.965333 3.669333 6.72 9.664 13.781333 17.066667 20.821334zM129.258667 613.44a282.069333 282.069333 0 0 1-13.973334-38.741333c-14.570667-52.309333-10.752-101.077333 4.053334-144.853334 26.666667-78.997333 89.173333-141.930667 143.829333-178.496 0.533333 15.573333 2.794667 33.408 8.128 49.173334 3.968 11.669333 9.877333 23.04 18.773333 31.402666 3.285333 3.093333 6.933333 5.717333 10.901334 7.765334-60.8 33.621333-102.613333 84.48-129.92 137.856a416.490667 416.490667 0 0 0-41.792 135.893333z m162.261333-319.765333c-5.973333-17.642667-7.573333-39.274667-7.061333-55.701334 18.901333-10.773333 37.546667-19.349333 55.978666-26.090666 297.749333 22.229333 464 119.722667 572.714667 277.696 1.386667 8.96 2.474667 17.6 3.242667 25.749333 1.536 16.128 1.877333 30.186667 1.130666 41.258667-0.768 11.562667-2.602667 18.346667-4.266666 21.205333-0.426667 0.768-0.704 0.853333-0.746667 0.874667-0.149333 0.064-0.853333 0.32-2.56 0.106666-3.797333-0.448-9.642667-2.752-17.664-7.616-15.808-9.557333-35.605333-26.197333-56.618667-44.629333-4.48-3.925333-8.981333-7.936-13.525333-11.946667-16.405333-14.506667-32.917333-29.12-47.616-40.597333-9.408-7.338667-18.474667-13.717333-26.666667-18.090667-7.616-4.053333-16.704-7.637333-25.216-6.08-2.88 0.512-7.466667 0.426667-13.866666-0.746666a148.8 148.8 0 0 1-21.909334-6.122667c-16.426667-5.781333-35.413333-14.570667-54.016-24.832a406.762667 406.762667 0 0 1-51.029333-32.96c-14.826667-11.434667-24.789333-21.610667-28.8-28.928-6.933333-12.736-18.304-19.157333-30.570667-21.653333-11.882667-2.432-24.96-1.301333-37.034666 0.917333a299.946667 299.946667 0 0 0-34.176 8.96l-5.162667 1.6c-7.786667 2.453333-13.333333 4.202667-16.768 4.778667-2.005333 0.32-5.162667-0.128-11.136-2.624a196.096 196.096 0 0 1-10.773333-5.056 444.8 444.8 0 0 0-10.688-5.141334c-17.493333-8.085333-40.661333-16.469333-72.085334-14.613333a25.386667 25.386667 0 0 1-19.968-7.018667c-5.397333-5.077333-9.813333-12.842667-13.141333-22.698666z m108.586667-97.6c40.96-6.954667 81.002667-6.101333 120.490666-1.173334 38.826667 4.821333 77.013333 13.546667 115.264 22.656l11.669334 2.794667c34.197333 8.192 68.48 16.426667 102.634666 21.845333s62.933333 25.856 86.762667 55.402667c23.850667 29.568 42.218667 67.669333 55.402667 106.816 3.989333 11.84 7.466667 23.701333 10.496 35.413333C797.546667 307.84 644.522667 224 400.085333 196.053333z" p-id="1027"></path></svg>